<svg height="50" viewBox="0 0 80 50" width="80" xmlns="http://www.w3.org/2000/svg" xmlns:xlink="http://www.w3.org/1999/xlink"><defs><rect id="a" height="48" rx="3" width="78" x="1" y="1"/><mask id="b" fill="#fff"><use fill="#fff" fill-rule="evenodd" xlink:href="#a"/></mask></defs><g fill="none" fill-rule="evenodd"><path d="m1 1h78v48h-78z" fill="#fff"/><rect fill="#fff" fill-rule="evenodd" height="50" rx="4" width="80"/><rect height="49" rx="4" stroke="#1a1a1a" width="79" x=".5" y=".5"/><use fill="#fff" xlink:href="#a"/><g fill-rule="nonzero" mask="url(#b)"><g transform="translate(4 14)"><path d="m77.9533295 13.9801871s-22.3412263 15.762695-63.2579415 22.8199997h63.2579415z" fill="#f58025"/><g fill="#231f20"><path d="m3.88636214 1.41441937h-3.26252064v11.39460653h3.24490919c1.72592185 0 2.97193176-.4050633 4.06824436-1.3208586 1.30311502-1.0809546 2.06079677-2.68337095 2.06934505-4.37644468-.0044028-3.35498074-2.50082551-5.69730325-6.11997796-5.69730325zm2.5976885 8.55916346c-.70005504.62960927-1.60704458.90698957-3.04237755.90698957h-.59438635v-7.53769953h.59438635c1.43533297 0 2.30709961.25536599 3.04237755.92019813.79016365.73059765 1.23742022 1.75928774 1.23280132 2.83544303.00707436 1.08815669-.43967149 2.13003183-1.23280132 2.8750688z"/><path d="m11.027804 1.414419h2.223445v11.394607h-2.223445z"/><path d="m18.6843808 5.7864612c-1.3208585-.49312053-1.7259218-.81893231-1.7259218-1.43533297 0-.71766648.6956522-1.26362135 1.6554761-1.26362135.7078535.01572483 1.3689501.3568312 1.7919647.92460099l1.1623556-1.5233902c-.9217546-.82173802-2.1157442-1.27203371-3.3505779-1.26362136-2.0165107 0-3.5531095 1.40011007-3.5531095 3.2669235 0 1.57182169.7176665 2.37314255 2.804623 3.12603192.5313907.16699972 1.045864.38369764 1.5365988.6472207.4148903.24787598.6677603.69667834.6648321 1.17996698-.0039661.44595281-.1910763.87066749-.517465 1.17457539-.3263888.3039079-.7633547.4602844-1.2084568.4324692-1.0366665.0135812-1.9854448-.5804814-2.4259769-1.51898736l-1.4309301 1.40011006c1.0258668 1.5013759 2.2542652 2.1706109 3.9625756 2.1706109 2.3115025 0 3.9317557-1.5365988 3.9317557-3.74243257-.0220143-1.83159053-.7705008-2.65052284-3.2977436-3.57512383z"/><path d="m22.664568 7.12052834c-.0133796 1.59315292.6181373 3.12399496 1.7509085 4.24432726 1.1327713 1.1203323 2.6704927 1.7349083 4.2634008 1.7039391.9683283.000377 1.9231244-.2273864 2.7870115-.6648321v-2.61529997c-.8805723.88057237-1.6774903 1.24600987-2.6857457 1.24600987-2.2366538 0-3.826087-1.62465599-3.826087-3.9317556-.0343905-1.01555846.3408477-2.00232223 1.0413448-2.73842379s1.6674611-1.15976071 2.6834764-1.17572041c1.0610897 0 1.8624105.37864612 2.7870115 1.2812328v-2.61529994c-.8379019-.45986638-1.7783758-.70066405-2.7341772-.70005504-1.5976148-.01997205-3.1370497.59890184-4.2762897 1.71912692s-1.7839351 2.64902625-1.7908539 4.2467509z"/><path d="m49.0905449 9.07099615-3.0379747-7.65657678h-2.4259769l4.8343423 11.68959823h1.1975784l4.9223996-11.68959823h-2.4083654z"/><path d="m55.5847661 12.8090259h6.3048982v-1.9284535h-4.081453v-3.07760047h3.9317557v-1.92845349h-3.9317557v-2.53164557h4.081453v-1.9284535h-6.3048982z"/><path d="m70.6909851 4.76940011c0-2.135388-1.4705558-3.36378646-4.0330214-3.36378646h-3.2977436v11.39460645h2.201431v-4.57897629h.2905889l3.0820033 4.57897629h2.7341772l-3.5883324-4.79911938c1.6862961-.33461751 2.610897-1.47055587 2.610897-3.23170061zm-4.460099 1.88002201h-.6516236v-3.45184369h.6824436c1.3824986 0 2.135388.58117776 2.135388 1.69069895s-.7484865 1.76995047-2.166208 1.76995047z"/></g><circle cx="38.233088" cy="7.120528" fill="#f58025" r="6.058338"/><g fill="#231f20"><path d="m71.875355 1.63896533c0-.19812879-.1364887-.30820033-.3786461-.30820033h-.321409v.99944964h.2377546v-.38745184l.2817831.38745184h.2905889l-.3302146-.41386902c.1305332-.02749573.2230075-.14401341.2201431-.27738029zm-.4402862.13648872h-.0396258v-.25976885h.0440287c.1188772 0 .1805173.04402861.1805173.12768299 0 .08365437-.0440286.13208586-.1629059.13208586z"/><path d="m71.5451403.95652174c-.4863266 0-.8805723.39424568-.8805723.88057237s.3942457.88057237.8805723.88057237c.4863267 0 .8805724-.39424568.8805724-.88057237s-.3942457-.88057237-.8805724-.88057237zm0 1.58943313c-.2924325.01077162-.5621171-.15708784-.6815692-.42422833-.119452-.2671405-.0647446-.5800521.1382612-.79081611.2030059-.21076402.5136467-.27716309.7850773-.16780924.2714306.10935386.4492817.37255637.4494801.6651872.009591.1913386-.0591595.37833095-.190409.51788742-.1312496.13955647-.3136765.21963886-.5052432.22179337z"/></g></g></g></g></svg>